<svg xmlns="http://www.w3.org/2000/svg" style="display:none">
  <symbol id="icon-sound-on" viewBox="0 0 24 24">
    <path d="M4 10v4h4l5 4V6l-5 4H4Z" fill="currentColor"/>
  </symbol>
  <symbol id="icon-sound-off" viewBox="0 0 24 24">
    <path d="M4 10v4h4l5 4V6l-5 4H4Z" fill="currentColor"/>
  </symbol>
  <symbol id="icon-messenger" viewBox="0 0 24 24">
    <path d="M12 3C6.9 3 3 6.7 3 11.6c0 2.6 1.1 4.9 3 6.4v3l2.8-1.5c1 .3 2.1.5 3.2.5 5.1 0 9-3.7 9-8.4S17.1 3 12 3Z" fill="currentColor"/>
  </symbol>
  <symbol id="icon-instagram" viewBox="0 0 24 24">
    <rect x="4" y="4" width="16" height="16" rx="4.5" fill="none" stroke="currentColor" stroke-width="1.8"/>
  </symbol>
  <symbol id="ornament-diamond" viewBox="0 0 64 64">
    <path d="M32 6 58 32 32 58 6 32 32 6Z" fill="none" stroke="currentColor" stroke-width="2"/>
  </symbol>
</svg>
